<?xml version="1.0" standalone="no"?>
<!DOCTYPE svg PUBLIC "-//W3C//DTD SVG 20010904//EN"
 "http://www.w3.org/TR/2001/REC-SVG-20010904/DTD/svg10.dtd">
<svg version="1.0" xmlns="http://www.w3.org/2000/svg"
 width="1024.000000pt" height="1024.000000pt" viewBox="0 0 1024.000000 1024.000000"
 preserveAspectRatio="xMidYMid meet">

<g transform="translate(0.000000,1024.000000) scale(0.100000,-0.100000)"
fill="#000000" stroke="none">
<path d="M4827 9660 c-871 -61 -1676 -357 -2362 -869 -271 -202 -578 -492
-787 -744 -578 -695 -921 -1497 -1023 -2392 -22 -194 -30 -602 -16 -811 66
-1013 414 -1877 1072 -2664 198 -238 501 -523 753 -710 753 -558 1600 -848
2556 -876 833 -25 1661 181 2360 586 761 442 1408 1129 1801 1911 438 875 582
1897 404 2874 -78 429 -203 799 -406 1205 -360 716 -885 1310 -1549 1751 -598
397 -1274 639 -2021 724 -163 19 -606 27 -782 15z m2383 -4390 l0 -2090 -390
0 -390 0 0 2090 0 2090 390 0 390 0 0 -2090z m-2011 705 c720 -2164 921 -2771
921 -2783 0 -9 -104 -12 -405 -12 l-404 0 -22 73 c-47 159 -259 840 -265 848
-5 9 -1444 13 -1444 4 0 -4 -146 -483 -247 -807 l-36 -118 -405 0 c-319 0
-403 3 -400 13 3 6 17 48 31 92 14 44 66 204 115 355 50 151 186 568 302 925
116 358 260 799 320 980 100 303 263 803 491 1505 49 151 92 281 94 288 4 10
99 12 451 10 l447 -3 456 -1370z"/>
<path d="M4290 6398 c0 -10 -319 -1037 -476 -1530 -5 -17 23 -18 485 -18 270
0 491 4 491 8 0 4 -38 129 -85 277 -47 149 -156 496 -242 773 -137 439 -173
541 -173 490z"/>
</g>
</svg>
